<svg viewBox="0 0 982 1060" version="1.1" xmlns="http://www.w3.org/2000/svg" xmlns:xlink="http://www.w3.org/1999/xlink">
  <g stroke="none" stroke-width="1" fill="none" fill-rule="evenodd">
    <g transform="translate(-435.000000, -72.000000)">
      <g transform="translate(-109.000000, -396.000000)">
        <g transform="translate(544.000000, 468.000000)">
          <g transform="translate(60.000000, 0.000000)" stroke="#3a3e41" stroke-width="1">
            <g transform="translate(230.000000, 397.000000)">
              <polygon stroke="#6c757d" stroke-width="1.5" points="1 199.243164 115.622192 133 230.785156 199.243164 115.622192 265.40918"></polygon>
              <polygon stroke="#6c757d" stroke-width="1.5" points="1 66.8135986 115.622192 0.57043457 230.785156 66.8135986 115.622192 132.979614"></polygon>
              <path stroke="#6c757d" stroke-width="1.5" d="M1,66.8135986 L1,199.243164"></path>
              <path stroke="#6c757d" stroke-width="1.5" d="M230.785156,66.8135986 L230.785156,199.243164"></path>
              <polyline stroke="#6c757d" points="115.622192 0.57043457 115.622192 126.282471 115.622192 265.40918"></polyline>
            </g>
            <g transform="translate(115.000000, 463.000000)">
              <polygon points="1 199.243164 115.622192 133 230.785156 199.243164 115.622192 265.40918"></polygon>
              <polygon points="1 66.8135986 115.622192 0.57043457 230.785156 66.8135986 115.622192 132.979614"></polygon>
              <path d="M1,66.8135986 L1,199.243164"></path>
              <path d="M230.785156,66.8135986 L230.785156,199.243164"></path>
              <polyline points="115.622192 0.57043457 115.622192 126.282471 115.622192 265.40918"></polyline>
            </g>
            <g transform="translate(460.000000, 265.000000)">
              <polygon points="1 199.243164 115.622192 133 230.785156 199.243164 115.622192 265.40918"></polygon>
              <polygon points="1 66.8135986 115.622192 0.57043457 230.785156 66.8135986 115.622192 132.979614"></polygon>
              <path d="M1,66.8135986 L1,199.243164"></path>
              <path d="M230.785156,66.8135986 L230.785156,199.243164"></path>
              <polyline points="115.622192 0.57043457 115.622192 126.282471 115.622192 265.40918"></polyline>
            </g>
            <g transform="translate(115.000000, 198.000000)">
              <polygon points="1 199.243164 115.622192 133 230.785156 199.243164 115.622192 265.40918"></polygon>
              <polygon points="1 66.8135986 115.622192 0.57043457 230.785156 66.8135986 115.622192 132.979614"></polygon>
              <path d="M1,66.8135986 L1,199.243164"></path>
              <path d="M230.785156,66.8135986 L230.785156,199.243164"></path>
              <polyline points="115.622192 0.57043457 115.622192 126.282471 115.622192 265.40918"></polyline>
            </g>
            <g transform="translate(230.000000, 132.000000)">
              <polygon points="1 199.243164 115.622192 133 230.785156 199.243164 115.622192 265.40918"></polygon>
              <polygon points="0.708984375 67.2164241 115.622192 0.57043457 230.785156 66.8135986 115.622192 132.979614"></polygon>
              <path d="M1,66.8135986 L1,199.243164"></path>
              <path d="M230.785156,66.8135986 L230.785156,199.243164"></path>
              <polyline points="115.622192 0.57043457 115.622192 126.282471 115.622192 265.40918"></polyline>
            </g>
            <g transform="translate(115.000000, 66.000000)">
              <polygon points="1 199.243164 115.622192 133 230.785156 199.243164 115.622192 265.40918"></polygon>
              <polygon points="1 66.8135986 115.622192 0.57043457 230.785156 66.8135986 115.622192 132.979614"></polygon>
              <path d="M1,66.8135986 L1,199.243164"></path>
              <path d="M230.785156,66.8135986 L230.785156,199.243164"></path>
              <polyline points="115.622192 0.57043457 115.622192 126.282471 115.622192 265.40918"></polyline>
            </g>
            <g transform="translate(345.000000, 331.000000)">
              <polygon points="1 199.243164 115.622192 133 230.785156 199.243164 115.622192 265.40918"></polygon>
              <polygon points="1 66.8135986 115.622192 0.57043457 230.785156 66.8135986 115.622192 132.979614"></polygon>
              <path d="M1,66.8135986 L1,199.243164"></path>
              <path d="M230.785156,66.8135986 L230.785156,199.243164"></path>
              <polyline points="115.622192 0.57043457 115.622192 126.282471 115.622192 265.40918"></polyline>
            </g>
          </g>
        </g>
      </g>
    </g>
  </g>
</svg>
